<svg width="39" height="39" viewBox="0 0 39 39" fill="none" xmlns="http://www.w3.org/2000/svg">
<path d="M19.5429 38.7273H19.4571C8.72858 38.7273 0 30.2226 0 19.7691V19.6855C0 9.23205 8.72858 0.727295 19.4571 0.727295H19.5429C30.2714 0.727295 39 9.23205 39 19.6855V19.7691C39 30.2226 30.2714 38.7273 19.5429 38.7273ZM19.4571 2.01356C9.45596 2.01356 1.32011 9.94078 1.32011 19.6855V19.7691C1.32011 29.5138 9.45596 37.441 19.4571 37.441H19.5429C29.544 37.441 37.6799 29.5138 37.6799 19.7691V19.6855C37.6799 9.94078 29.544 2.01356 19.5429 2.01356H19.4571Z" fill="white"/>
<path d="M9.64848 13.5729C9.15212 13.124 8.90527 12.5683 8.90527 11.9072C8.90527 11.246 9.15344 10.6659 9.64848 10.2157C10.1448 9.76684 10.7838 9.54175 11.5666 9.54175C12.3494 9.54175 12.9633 9.76684 13.4583 10.2157C13.9547 10.6647 14.2015 11.2293 14.2015 11.9072C14.2015 12.585 13.9534 13.124 13.4583 13.5729C12.962 14.0218 12.3323 14.2469 11.5666 14.2469C10.8009 14.2469 10.1448 14.0218 9.64848 13.5729ZM13.7844 16.148V29.911H9.32109V16.148H13.7844Z" fill="white"/>
<path d="M28.6417 17.5079C29.6146 18.5369 30.1004 19.9492 30.1004 21.7474V29.6682H25.8615V22.3056C25.8615 21.3988 25.62 20.6939 25.1381 20.1923C24.6563 19.6906 24.0068 19.4385 23.1936 19.4385C22.3804 19.4385 21.7309 19.6893 21.2491 20.1923C20.7672 20.6939 20.5256 21.3988 20.5256 22.3056V29.6682H16.2617V16.1097H20.5256V17.9079C20.9573 17.3085 21.5395 16.8351 22.2709 16.4866C23.0022 16.138 23.8246 15.9644 24.7395 15.9644C26.3685 15.9644 27.6701 16.4789 28.6417 17.5079Z" fill="white"/>
</svg>
