<svg width="39" height="39" viewBox="0 0 39 39" fill="none" xmlns="http://www.w3.org/2000/svg">
<path d="M19.5429 38.7273H19.4571C8.72857 38.7273 0 30.2225 0 19.7691V19.6855C0 9.23206 8.72857 0.727295 19.4571 0.727295H19.5429C30.2714 0.727295 39 9.23206 39 19.6855V19.7691C39 30.2225 30.2714 38.7273 19.5429 38.7273ZM19.4571 2.01355C9.45595 2.01355 1.32011 9.94079 1.32011 19.6855V19.7691C1.32011 29.5138 9.45595 37.441 19.4571 37.441H19.5429C29.5441 37.441 37.6799 29.5138 37.6799 19.7691V19.6855C37.6799 9.94079 29.5441 2.01355 19.5429 2.01355H19.4571Z" fill="white"/>
<path d="M30.6729 18.7535C30.166 13.1814 25.3489 8.79785 19.5009 8.79785C13.3148 8.79785 8.28125 13.7024 8.28125 19.7272C8.28125 21.9396 8.9611 24.0015 10.1268 25.7238L8.72877 28.7426C8.36046 29.5362 9.01654 30.4186 9.90498 30.3273L15.1102 29.7871C16.4593 30.3479 17.9431 30.6578 19.5009 30.6578C19.8969 30.6578 20.2903 30.6373 20.6758 30.5987C21.0322 30.5614 21.382 30.5086 21.7279 30.4417C26.8301 29.4359 30.6875 25.0446 30.7178 19.7902V19.7272C30.7178 19.4005 30.7033 19.0725 30.6729 18.7535ZM25.7318 17.2666L23.3767 20.8064L22.1305 22.6792C21.8652 23.0779 21.3068 23.1731 20.9187 22.885L18.8527 21.3595L17.5788 20.4192C17.4758 20.3433 17.3319 20.3459 17.2316 20.4257L14.1056 22.9107C13.6026 23.3107 12.9148 22.7088 13.2673 22.1788L15.4732 18.8654L16.7194 16.9913C16.9847 16.5926 17.5418 16.4974 17.9312 16.7843L19.9365 18.266L21.2104 19.205C21.3134 19.2822 21.4573 19.2796 21.5576 19.1986L24.8922 16.5347C25.3951 16.1334 26.0856 16.7354 25.7318 17.2666Z" fill="white"/>
</svg>
