<svg width="39" height="39" viewBox="0 0 39 39" fill="none" xmlns="http://www.w3.org/2000/svg">
<path d="M19.5429 38.7273H19.4571C8.72855 38.7273 0 30.2225 0 19.7691V19.6855C0 9.23204 8.72855 0.727295 19.4571 0.727295H19.5429C30.2714 0.727295 39 9.23204 39 19.6855V19.7691C39 30.2225 30.2714 38.7273 19.5429 38.7273ZM19.4571 2.01356C9.45593 2.01356 1.32011 9.94077 1.32011 19.6855V19.7691C1.32011 29.5138 9.45593 37.441 19.4571 37.441H19.5429C29.5441 37.441 37.6799 29.5138 37.6799 19.7691V19.6855C37.6799 9.94077 29.5441 2.01356 19.5429 2.01356H19.4571Z" fill="white"/>
<path d="M7.79452 19.1004C7.84733 19.0746 7.90016 19.0502 7.95164 19.027C8.84668 18.6232 9.75359 18.245 10.6592 17.8668C10.708 17.8668 10.7899 17.8115 10.8361 17.7935C10.906 17.7639 10.976 17.7356 11.046 17.7061C11.1806 17.6495 11.3153 17.5941 11.4486 17.5375C11.7179 17.4256 11.9859 17.3138 12.2552 17.2019C12.7925 16.978 13.3297 16.7542 13.867 16.5291C14.9416 16.0815 16.0175 15.6326 17.0921 15.185C18.1667 14.7374 19.2425 14.2885 20.3171 13.8408C21.3917 13.3932 22.4676 12.9443 23.5421 12.4967C24.6167 12.0491 25.6926 11.6002 26.7672 11.1526C27.0061 11.0522 27.2649 10.903 27.521 10.8593C27.7361 10.822 27.946 10.75 28.1625 10.7101C28.5731 10.6342 29.0259 10.6033 29.4193 10.7693C29.5552 10.8271 29.6806 10.9082 29.7849 11.0098C30.2839 11.4908 30.214 12.2806 30.1084 12.9572C29.373 17.6726 28.6378 22.3893 27.9011 27.1048C27.8008 27.7518 27.6635 28.4618 27.1394 28.8708C26.6959 29.2168 26.0648 29.2554 25.517 29.1087C24.9692 28.9608 24.486 28.6508 24.0121 28.346C22.0464 27.0777 20.0795 25.8095 18.1138 24.5412C17.6465 24.2402 17.1264 23.8467 17.1317 23.3C17.1343 22.9707 17.3363 22.6774 17.5422 22.4163C19.2505 20.2451 21.7151 18.7531 23.5487 16.6822C23.8075 16.3902 24.0108 15.8629 23.6557 15.6944C23.4445 15.594 23.2015 15.7303 23.0088 15.8603C20.5851 17.5002 18.1627 19.1415 15.739 20.7815C14.9482 21.3166 14.1192 21.8671 13.1661 21.9983C12.3133 22.1166 11.4552 21.8851 10.6301 21.6484C9.93841 21.4503 9.24797 21.2471 8.56019 21.0375C8.19452 20.9268 7.81697 20.8072 7.53447 20.5564C7.25196 20.3056 7.08961 19.8837 7.2599 19.5493C7.36683 19.3396 7.57409 19.2071 7.79191 19.0991L7.79452 19.1004Z" fill="white"/>
</svg>
