<svg width="30" height="30" viewBox="0 0 30 30" fill="none" xmlns="http://www.w3.org/2000/svg">
<path d="M14.9997 15C12.983 15 11.2566 14.282 9.82051 12.8459C8.3844 11.4098 7.66634 9.68337 7.66634 7.66671C7.66634 5.65004 8.3844 3.92365 9.82051 2.48754C11.2566 1.05143 12.983 0.333374 14.9997 0.333374C17.0163 0.333374 18.7427 1.05143 20.1788 2.48754C21.615 3.92365 22.333 5.65004 22.333 7.66671C22.333 9.68337 21.615 11.4098 20.1788 12.8459C18.7427 14.282 17.0163 15 14.9997 15ZM0.333008 29.6667V24.5334C0.333008 23.4945 0.600369 22.5396 1.13509 21.6688C1.66981 20.798 2.38023 20.1334 3.26634 19.675C5.16079 18.7278 7.08579 18.0174 9.04134 17.5438C10.9969 17.0702 12.983 16.8334 14.9997 16.8334C17.0163 16.8334 19.0025 17.0702 20.958 17.5438C22.9136 18.0174 24.8386 18.7278 26.733 19.675C27.6191 20.1334 28.3295 20.798 28.8643 21.6688C29.399 22.5396 29.6663 23.4945 29.6663 24.5334V29.6667H0.333008ZM3.99967 26H25.9997V24.5334C25.9997 24.1973 25.9156 23.8917 25.7476 23.6167C25.5795 23.3417 25.358 23.1278 25.083 22.975C23.433 22.15 21.7677 21.5313 20.0872 21.1188C18.4066 20.7063 16.7108 20.5 14.9997 20.5C13.2886 20.5 11.5927 20.7063 9.91217 21.1188C8.23162 21.5313 6.56634 22.15 4.91634 22.975C4.64134 23.1278 4.41981 23.3417 4.25176 23.6167C4.0837 23.8917 3.99967 24.1973 3.99967 24.5334V26ZM14.9997 11.3334C16.008 11.3334 16.8712 10.9743 17.5893 10.2563C18.3073 9.53824 18.6663 8.67504 18.6663 7.66671C18.6663 6.65837 18.3073 5.79518 17.5893 5.07712C16.8712 4.35907 16.008 4.00004 14.9997 4.00004C13.9913 4.00004 13.1281 4.35907 12.4101 5.07712C11.692 5.79518 11.333 6.65837 11.333 7.66671C11.333 8.67504 11.692 9.53824 12.4101 10.2563C13.1281 10.9743 13.9913 11.3334 14.9997 11.3334Z" fill="#1E1E1E"/>
</svg>
