<svg width="29" height="20" viewBox="0 0 29 20" fill="none" xmlns="http://www.w3.org/2000/svg">
<path d="M28.7087 8.70834H26.1253V6.12501H23.542V8.70834H20.9587V11.2917H23.542V13.875H26.1253V11.2917H28.7087M9.33366 8.70834V11.8083H14.5003C14.242 13.1 12.9503 15.6833 9.33366 15.6833C6.23366 15.6833 3.77949 13.1 3.77949 10C3.77949 6.90001 6.23366 4.31668 9.33366 4.31668C11.142 4.31668 12.3045 5.09168 12.9503 5.73751L15.4045 3.41251C13.8545 1.86251 11.7878 0.958344 9.33366 0.958344C4.29616 0.958344 0.291992 4.96251 0.291992 10C0.291992 15.0375 4.29616 19.0417 9.33366 19.0417C14.5003 19.0417 17.9878 15.425 17.9878 10.2583C17.9878 9.61251 17.9878 9.22501 17.8587 8.70834H9.33366Z" fill="white"/>
</svg>
